<mxfile host="app.diagrams.net" modified="2024-01-06T06:19:57.340Z" agent="Mozilla/5.0 (Windows NT 10.0; Win64; x64) AppleWebKit/537.36 (KHTML, like Gecko) Chrome/120.0.0.0 Safari/537.36 Edg/120.0.0.0" version="22.1.17" etag="xBpran1j7R8WSQOSjZQC" type="github">
  <diagram name="第 1 页" id="dHquSTngFH4VYkd-CIKQ">
    <mxGraphModel>
      <root>
        <mxCell id="0" />
        <mxCell id="1" parent="0" />
      </root>
    </mxGraphModel>
  </diagram>
</mxfile>
